# xmcd
#
# Track frame offsets: 
#        150
#        22037
#        45092
#        65225
#        84440
#        103987
#        121815
#        139482
#        154675
#        173310
#        194612
#        214852
#
# Disc length: 3142 seconds
#
# Revision: 2
# Processed by: cddbd v1.5.2PL0 Copyright (c) Steve Scherf et al.
# Submitted via: ExactAudioCopy v0.99pb4
#
DISCID=a50c440c
DTITLE=Poor Righteous Teachers - Black Business
DYEAR=1900
DGENRE=Hip-Hop
TTITLE0=144K
TTITLE1=Da Rill Shit
TTITLE2=Nobody Move
TTITLE3=Mi Fresh
TTITLE4=Here We Go Again
TTITLE5=Selah
TTITLE6=Balck Business
TTITLE7=Get Off the Crack
TTITLE8=None Can Test
TTITLE9=Ghetto We Love
TTITLE10=Rich Mon Time
TTITLE11=Lick Shots
EXTD=
EXTT0=
EXTT1=
EXTT2=
EXTT3=
EXTT4=
EXTT5=
EXTT6=
EXTT7=
EXTT8=
EXTT9=
EXTT10=
EXTT11=
PLAYORDER=
